<svg xmlns="http://www.w3.org/2000/svg" xmlns:xlink="http://www.w3.org/1999/xlink" viewBox="0 0 47.1 13.6" xml:space="preserve"><path d="M40.3 13.6H6.8c-3.7 0-6.8-3-6.8-6.8C0 3.1 3.1 0 6.8 0h33.5c3.8 0 6.8 3.1 6.8 6.8 0 3.8-3.1 6.8-6.8 6.8"/><linearGradient id="a" gradientUnits="userSpaceOnUse" x1="38.382" y1="9.607" x2="38.382" y2="3.745"><stop offset="0" style="stop-color:#666"/><stop offset="1" style="stop-color:#010104"/></linearGradient><circle cx="38.4" cy="6.8" r="3" style="fill:url(#a)"/><image style="overflow:visible" width="7" height="6" xlink:href="1A539E31CE765E2E.png" transform="translate(34.946 3.95)"/><linearGradient id="b" gradientUnits="userSpaceOnUse" x1="35.771" y1="-764.506" x2="35.771" y2="-767.855" gradientTransform="rotate(180 37.077 -379.643)"><stop offset="0" style="stop-color:#0b131c"/><stop offset="1" style="stop-color:#354039"/></linearGradient><circle cx="38.4" cy="6.8" r="1.7" style="fill:url(#b)"/><linearGradient id="c" gradientUnits="userSpaceOnUse" x1="39.433" y1="7.868" x2="37.328" y2="5.763"><stop offset="0" style="stop-color:#231f20"/><stop offset=".083" style="stop-color:#222326"/><stop offset=".196" style="stop-color:#1f2c37"/><stop offset=".325" style="stop-color:#1a3d54"/><stop offset=".468" style="stop-color:#13537c"/><stop offset=".62" style="stop-color:#0b71ae"/><stop offset=".779" style="stop-color:#0094ec"/><stop offset=".785" style="stop-color:#0095ee"/><stop offset=".8" style="stop-color:#0488d6"/><stop offset=".838" style="stop-color:#0d689f"/><stop offset=".876" style="stop-color:#154e72"/><stop offset=".912" style="stop-color:#1b394e"/><stop offset=".946" style="stop-color:#1f2b35"/><stop offset=".976" style="stop-color:#222225"/><stop offset="1" style="stop-color:#231f20"/></linearGradient><path d="M39.9 6.8c0 .8-.7 1.5-1.5 1.5s-1.5-.7-1.5-1.5.7-1.5 1.5-1.5 1.5.7 1.5 1.5" style="fill:url(#c)"/><radialGradient id="d" cx="38.381" cy="6.816" r="1.488" gradientUnits="userSpaceOnUse"><stop offset="0" style="stop-color:#231f20"/><stop offset=".202" style="stop-color:#175168"/><stop offset=".384" style="stop-color:#0d78a2"/><stop offset=".538" style="stop-color:#0695cb"/><stop offset=".66" style="stop-color:#02a7e5"/><stop offset=".733" style="stop-color:#00adee"/><stop offset=".759" style="stop-color:#02a6e4"/><stop offset=".805" style="stop-color:#0693c8"/><stop offset=".865" style="stop-color:#0e749c"/><stop offset=".935" style="stop-color:#184a5f"/><stop offset="1" style="stop-color:#231f20"/></radialGradient><path d="M39.9 6.8c0 .8-.7 1.5-1.5 1.5s-1.5-.7-1.5-1.5.7-1.5 1.5-1.5 1.5.7 1.5 1.5" style="fill:url(#d)"/><radialGradient id="e" cx="39.198" cy="7.592" r=".531" gradientUnits="userSpaceOnUse"><stop offset="0" style="stop-color:#ccc"/><stop offset=".024" style="stop-color:#c4c4c4"/><stop offset=".22" style="stop-color:#898989"/><stop offset=".408" style="stop-color:#585858"/><stop offset=".586" style="stop-color:#323232"/><stop offset=".748" style="stop-color:#161616"/><stop offset=".891" style="stop-color:#060606"/><stop offset="1" style="stop-color:#000"/></radialGradient><path d="M39.7 7.6c0-.3-.2-.5-.5-.5s-.5.2-.5.5.2.5.5.5.5-.2.5-.5" style="fill:url(#e)"/></svg>