<svg width="24" height="24" viewBox="0 0 24 24" fill="none" xmlns="http://www.w3.org/2000/svg">
<path d="M3.53579 10.1707L2.76789 10.9563L2 10.1707L2.76789 9.38515L3.53579 10.1707ZM22 19.0596C22 19.3543 21.8856 19.6369 21.6819 19.8453C21.4782 20.0536 21.2019 20.1707 20.9139 20.1707C20.6258 20.1707 20.3495 20.0536 20.1459 19.8453C19.9422 19.6369 19.8277 19.3543 19.8277 19.0596H22ZM8.19855 16.5118L2.76789 10.9563L4.30368 9.38515L9.73433 14.9407L8.19855 16.5118ZM2.76789 9.38515L8.19855 3.82959L9.73433 5.4007L4.30368 10.9563L2.76789 9.38515ZM3.53579 9.05959H14.3971V11.2818H3.53579V9.05959ZM22 16.8374V19.0596H19.8277V16.8374H22ZM14.3971 9.05959C16.4135 9.05959 18.3473 9.87903 19.7732 11.3376C21.199 12.7963 22 14.7746 22 16.8374H19.8277C19.8277 15.3639 19.2556 13.9509 18.2371 12.909C17.2187 11.8671 15.8374 11.2818 14.3971 11.2818V9.05959Z" fill="#F1B626"/>
</svg>
