<svg width="24" height="24" viewBox="0 0 24 24" fill="none" xmlns="http://www.w3.org/2000/svg">
<path d="M12.5889 21.4804L12.6055 21.8935L12.6016 21.9091L12.5899 21.9247L12.4893 21.996L12.4776 21.9999L12.463 21.996L12.3634 21.9247L12.3536 21.912L12.3487 21.8935L12.3643 21.4794L12.3682 21.4706C12.3734 21.4642 12.3814 21.4622 12.3917 21.4648L12.46 21.499L12.4737 21.5029L12.4932 21.499L12.5616 21.4658L12.5733 21.4638C12.5809 21.4651 12.5863 21.4703 12.5889 21.4804ZM12.1378 21.3564L12.3155 21.4453L12.3253 21.455L12.3282 21.4667L12.3106 21.8818L12.3077 21.8925L12.2979 21.8994L12.1046 21.9892L12.0899 21.9911C12.0797 21.9873 12.074 21.9801 12.0733 21.9687L12.1065 21.3759L12.1114 21.3622C12.1142 21.3581 12.1192 21.3545 12.1241 21.3535C12.1288 21.3525 12.1337 21.3539 12.1378 21.3564ZM12.8282 21.3544C12.8379 21.3564 12.8445 21.3637 12.8477 21.3759L12.88 21.9687L12.876 21.9814C12.8696 21.9897 12.8609 21.9924 12.8487 21.9892L12.6544 21.9003L12.6466 21.8935L12.6417 21.8818L12.6241 21.4667L12.627 21.456L12.6368 21.4462L12.8145 21.3564L12.8282 21.3544ZM4.75105 14.6728C4.96442 14.5485 5.21766 14.5109 5.45808 14.5673L5.5655 14.5986L12.0001 16.8964L18.4346 14.5986C18.6665 14.5158 18.921 14.5252 19.1466 14.624C19.3723 14.7228 19.5522 14.904 19.6485 15.1308C19.7447 15.3576 19.7508 15.6127 19.6651 15.8437C19.5795 16.0746 19.4083 16.2638 19.1876 16.373L19.0831 16.4179L14.8702 17.9218L19.0831 19.4267C19.3162 19.5086 19.5093 19.6766 19.6221 19.8964C19.7348 20.1161 19.7587 20.3704 19.6895 20.6074C19.6202 20.8445 19.4625 21.0463 19.2491 21.1708C19.0357 21.2952 18.7825 21.3337 18.5421 21.2773L18.4346 21.2451L12.0001 18.9472L5.5655 21.2451C5.33371 21.3279 5.07909 21.3193 4.85359 21.2206C4.62789 21.1218 4.4479 20.9397 4.35163 20.7128C4.25556 20.4861 4.2494 20.2308 4.33503 19.9999C4.42073 19.7691 4.59183 19.5798 4.81257 19.4706L4.91706 19.4267L9.12995 17.9218L4.91706 16.4179C4.68398 16.336 4.49088 16.1679 4.378 15.9482C4.26513 15.7284 4.24133 15.4734 4.31062 15.2363C4.37991 14.9991 4.53761 14.7973 4.75105 14.6728ZM12.1514 2.28021C12.6245 2.0128 13.1459 1.8366 13.5968 2.22845C13.867 2.46202 13.9574 2.79101 13.9093 3.12592L13.8702 3.32416L13.8555 3.45892C13.8491 3.54131 13.8518 3.64059 13.8634 3.7558C13.9464 4.50005 14.4534 5.0319 14.9786 5.51361L15.42 5.91498L15.7501 6.22748C16.5341 6.99213 17.3997 8.02355 17.7637 9.48138C18.2018 11.2324 17.7689 12.8028 16.6221 13.9091C15.5157 14.9789 13.8548 15.5087 12.0001 15.5087C8.94034 15.5087 6.2071 13.5271 6.2071 10.1982C6.20714 7.59531 7.92747 5.53947 9.43366 4.22162C10.0113 3.72586 10.6213 3.2693 11.2589 2.85345L11.9395 2.40912L12.1514 2.28021ZM11.7872 9.00482L11.5577 9.29584L11.377 9.539L11.1846 9.81342C10.6575 10.5848 10.0694 11.644 10.0694 12.5322C10.0696 13.6423 10.9343 14.5429 12.0001 14.5429C13.0659 14.5429 13.9305 13.6423 13.9307 12.5322C13.9307 11.6439 13.3427 10.5848 12.8155 9.81342L12.6231 9.539L12.4425 9.29584L12.2149 9.00482L12.0001 8.74994L11.7872 9.00482Z" fill="#0B0B0A"/>
</svg>
