<svg width="24" height="24" viewBox="0 0 24 24" fill="none" xmlns="http://www.w3.org/2000/svg">
<path d="M21.9433 10.4777C22.2951 10.4777 22.5827 10.1975 22.5576 9.8532C22.439 8.22673 21.8589 6.66052 20.8771 5.33462C19.8953 4.00872 18.5563 2.9835 17.0164 2.37022C16.6904 2.2404 16.3299 2.42215 16.2212 2.75043L13.9331 9.65957C13.7994 10.0634 14.1062 10.4777 14.5389 10.4777L21.9433 10.4777Z" fill="#969595"/>
<path d="M11.9116 11.1815C11.7779 11.5853 12.0847 11.9996 12.5174 11.9996L21.1935 11.9995C21.5455 11.9995 21.8328 12.2799 21.8107 12.6246C21.6322 15.4073 20.2769 18.1024 17.8453 19.933C13.3795 23.2951 6.98139 22.4687 3.55469 18.0871C0.127987 13.7056 0.970315 7.42819 5.43608 4.06612C8.01981 2.12096 11.25 1.5788 14.1777 2.31517C14.5187 2.40094 14.7018 2.75573 14.593 3.08422L11.9116 11.1815Z" fill="#969595"/>
</svg>
