<svg width="24" height="24" viewBox="0 0 24 24" fill="none" xmlns="http://www.w3.org/2000/svg">
<path fill-rule="evenodd" clip-rule="evenodd" d="M14.4443 3.11133C15.5489 3.11139 16.4443 4.00679 16.4443 5.11133V6.44434H20C21.1045 6.44434 21.9999 7.33982 22 8.44434V18.8887C21.9999 19.9931 21.1045 20.8887 20 20.8887H4C2.8955 20.8887 2.00012 19.9931 2 18.8887V8.44434C2.00006 7.33982 2.89547 6.44434 4 6.44434H7.55566V5.11133C7.55566 4.00676 8.45109 3.11133 9.55566 3.11133H14.4443ZM11.3906 9.77734C11.1147 9.77746 10.8909 10.0015 10.8906 10.2773V12.5547H8.61328C8.33741 12.5547 8.11372 12.7789 8.11328 13.0547V14.2773C8.11331 14.5535 8.33716 14.7773 8.61328 14.7773H10.8906V17.0547C10.8906 17.3308 11.1146 17.5546 11.3906 17.5547H12.6133C12.8892 17.5545 13.1133 17.3307 13.1133 17.0547V14.7773H15.3906C15.6666 14.7772 15.8906 14.5534 15.8906 14.2773V13.0547C15.8902 12.779 15.6664 12.5548 15.3906 12.5547H13.1133V10.2773C13.113 10.0015 12.8891 9.77758 12.6133 9.77734H11.3906ZM9.55566 4.61133C9.27952 4.61133 9.05566 4.83519 9.05566 5.11133V6.44434H14.9443V5.11133C14.9443 4.83522 14.7204 4.61139 14.4443 4.61133H9.55566Z" fill="#0B0B0A"/>
</svg>
