<svg width="24" height="24" viewBox="0 0 24 24" fill="none" xmlns="http://www.w3.org/2000/svg">
<path d="M11.9976 17.002C13.1022 17.002 13.9976 17.8973 13.9976 19.002C13.9976 20.1066 13.1022 21.002 11.9976 21.002C10.8929 21.002 9.99756 20.1066 9.99756 19.002C9.99756 17.8973 10.8929 17.002 11.9976 17.002ZM11.9966 19.0029H11.9985V19.001H11.9966V19.0029ZM11.9976 10.001C13.1021 10.001 13.9973 10.896 13.9976 12C13.9976 13.1042 13.1023 14 11.9976 14C10.8929 13.9999 9.99756 13.1042 9.99756 12C9.99782 10.8961 10.8931 10.0011 11.9976 10.001ZM11.9966 12.001H11.9985V11.999H11.9966V12.001ZM11.9976 3.00098C13.1023 3.00098 13.9976 3.89577 13.9976 5C13.9974 6.1041 13.1022 6.99902 11.9976 6.99902C10.893 6.99893 9.99771 6.10405 9.99756 5C9.99756 3.89583 10.8929 3.00107 11.9976 3.00098ZM11.9966 5.00098H11.9985V4.99902H11.9966V5.00098Z" fill="#0B0B0A"/>
</svg>
