<svg width="24" height="24" viewBox="0 0 24 24" fill="none" xmlns="http://www.w3.org/2000/svg">
<path d="M10.1607 10.6207C10.5834 10.6207 11.0019 10.5374 11.3924 10.3756C11.7829 10.2139 12.1378 9.97679 12.4366 9.6779C12.7355 9.379 12.9726 9.02417 13.1343 8.63365C13.2961 8.24313 13.3793 7.82457 13.3793 7.40188C13.3793 6.97918 13.2961 6.56063 13.1343 6.17011C12.9726 5.77959 12.7355 5.42475 12.4366 5.12586C12.1378 4.82697 11.7829 4.58988 11.3924 4.42812C11.0019 4.26636 10.5834 4.1831 10.1607 4.1831C9.30709 4.1831 8.48843 4.52222 7.88482 5.12586C7.28121 5.7295 6.94211 6.54821 6.94211 7.40188C6.94211 8.25555 7.28121 9.07426 7.88482 9.6779C8.48843 10.2815 9.30709 10.6207 10.1607 10.6207Z" fill="#0B0B0A"/>
<path d="M12.1164 7.40194C12.1164 7.14514 12.0654 6.8903 11.9671 6.65305C11.8689 6.41598 11.7242 6.20038 11.5427 6.01891C11.3612 5.83753 11.1456 5.69393 10.9086 5.59574C10.6715 5.49754 10.4176 5.44648 10.1609 5.44646C9.64239 5.44646 9.1446 5.65221 8.77792 6.01891C8.41123 6.38562 8.20546 6.8833 8.20546 7.40194C8.20547 7.92055 8.41124 8.41826 8.77792 8.78496C9.1446 9.15163 9.64242 9.35741 10.1609 9.35741C10.4176 9.35739 10.6715 9.30632 10.9086 9.20813C11.1456 9.10995 11.3613 8.96632 11.5427 8.78496C11.7242 8.60352 11.8689 8.38786 11.9671 8.15082C12.0654 7.91359 12.1164 7.65872 12.1164 7.40194ZM14.6431 7.40194C14.6431 7.99045 14.5266 8.57311 14.3014 9.11684C14.0762 9.66058 13.7466 10.1552 13.3304 10.5714C12.9143 10.9876 12.4196 11.3171 11.8758 11.5424C11.3321 11.7676 10.7495 11.8841 10.1609 11.8841C8.97228 11.8841 7.83198 11.4119 6.99146 10.5714C6.15095 9.73086 5.67877 8.59063 5.67876 7.40194C5.67876 6.21322 6.15093 5.07302 6.99146 4.23245C7.83198 3.39191 8.97225 2.91975 10.1609 2.91975C10.7495 2.91978 11.3321 3.03627 11.8758 3.2615C12.4196 3.48675 12.9143 3.81628 13.3304 4.23245C13.7465 4.64862 14.0762 5.14332 14.3014 5.68704C14.5265 6.23075 14.6431 6.81344 14.6431 7.40194Z" fill="#0B0B0A"/>
<path d="M19.2036 2.15901C19.8135 1.82046 20.5822 2.04023 20.921 2.65004L19.8168 3.26321C20.8298 2.70046 20.9138 2.65463 20.921 2.65128L20.9222 2.65251L20.9235 2.65498C20.9235 2.65498 20.926 2.65899 20.9272 2.66115C20.9296 2.66562 20.9325 2.67098 20.9358 2.67718C20.9427 2.68999 20.9514 2.70652 20.9617 2.72653C20.9825 2.76689 21.0106 2.82203 21.0431 2.89062C21.1082 3.0277 21.193 3.2207 21.2862 3.46308C21.4723 3.94704 21.692 4.63539 21.8377 5.48024C22.1298 7.17499 22.1267 9.50966 20.9667 12.0623C20.6779 12.6974 19.9289 12.9789 19.2937 12.6902C18.6586 12.4015 18.3783 11.6524 18.667 11.0173L18.8261 10.6447C19.5737 8.79465 19.5589 7.13343 19.348 5.90959C19.235 5.25436 19.0657 4.72653 18.9285 4.36988C18.8601 4.19201 18.7995 4.05823 18.7595 3.97385C18.7395 3.93174 18.7248 3.90144 18.7163 3.88502C18.7142 3.88088 18.7126 3.87753 18.7114 3.87515V3.87391C18.3745 3.26438 18.5945 2.49738 19.2036 2.15901ZM16.0329 3.97261C16.657 3.66059 17.4161 3.91359 17.7281 4.53767L16.7485 5.02746C17.6539 4.57483 17.7227 4.54105 17.7281 4.5389L17.7305 4.54137C17.7305 4.54137 17.7321 4.5457 17.733 4.54754C17.7348 4.55107 17.737 4.55539 17.7392 4.55987C17.7437 4.56927 17.749 4.58098 17.7552 4.59442C17.7679 4.62162 17.7836 4.65729 17.8021 4.70052C17.839 4.78705 17.887 4.9053 17.9378 5.05214C18.0392 5.34521 18.1559 5.75728 18.2339 6.25997C18.3902 7.26736 18.39 8.65784 17.7676 10.1796C17.5033 10.8251 16.765 11.1346 16.1193 10.8705C15.4736 10.6062 15.1642 9.86791 15.4284 9.22218C15.8402 8.21533 15.8403 7.30674 15.7381 6.64736C15.6868 6.31676 15.6095 6.05267 15.5493 5.87874C15.5194 5.79228 15.4946 5.72896 15.479 5.69245L15.4629 5.6579L15.4654 5.6616L15.4666 5.66407V5.6653L15.4679 5.66654C15.1565 5.04265 15.4092 4.28453 16.0329 3.97261Z" fill="#0B0B0A"/>
<path d="M3.26433 20.1849V20.7367H17.0584V20.1849C17.0584 18.1249 17.0584 17.0949 16.6574 16.3077C16.3048 15.6155 15.7421 15.0528 15.05 14.7001C14.2628 14.2992 13.2328 14.2992 11.1729 14.2992H9.14979C7.08988 14.2992 6.05992 14.2992 5.27274 14.7001C4.58063 15.0528 4.01793 15.6155 3.66527 16.3077C3.26433 17.0949 3.26433 18.1249 3.26433 20.1849Z" fill="#0B0B0A"/>
<path d="M11.1726 13.0358C12.1817 13.0358 13.0151 13.0348 13.6919 13.0901C14.3833 13.1466 15.0228 13.2687 15.6239 13.575C16.5535 14.0488 17.3093 14.8044 17.783 15.734C18.0892 16.3353 18.2113 16.9745 18.2679 17.666C18.3232 18.3428 18.3221 19.1762 18.3221 20.1853V20.7368C18.3221 21.4344 17.7563 22 17.0588 22.0002H3.26433C2.56664 22.0002 2.00104 21.4345 2.00098 20.7368V20.1853C2.00098 19.1762 1.99997 18.3428 2.05526 17.666C2.11177 16.9745 2.23389 16.3353 2.54012 15.734C3.01387 14.8044 3.76954 14.0487 4.69917 13.575L4.92618 13.4676C5.46081 13.2383 6.02602 13.1396 6.63121 13.0901C7.30783 13.0348 8.14045 13.0358 9.14927 13.0358H11.1726ZM9.14927 15.5625C8.099 15.5625 7.38709 15.5633 6.83724 15.6082C6.30255 15.6519 6.03244 15.7307 5.84655 15.8253C5.39215 16.0568 5.02201 16.4269 4.79047 16.8814C4.69588 17.0673 4.61702 17.3373 4.57333 17.8721C4.53937 18.2878 4.53368 18.7962 4.53138 19.4735H15.7917C15.7894 18.7962 15.7825 18.2878 15.7486 17.8721C15.7048 17.337 15.6261 17.0673 15.5314 16.8814C15.2999 16.4269 14.931 16.0568 14.4766 15.8253C14.2907 15.7307 14.0209 15.6519 13.4859 15.6082C12.9359 15.5632 12.2234 15.5625 11.1726 15.5625H9.14927Z" fill="#0B0B0A"/>
</svg>
