<svg width="24" height="24" viewBox="0 0 24 24" fill="none" xmlns="http://www.w3.org/2000/svg">
<path d="M11.9975 8C8.3147 8 4.85327 8.82682 3.12673 10.6721C2.35273 11.5082 1.95321 12.5173 2.00437 13.7354C2.03812 14.4715 2.25112 15.1257 2.65028 15.5531C2.95691 15.8804 3.36514 16.0623 3.84957 15.9805L7.0051 15.4077C7.48119 15.3262 7.81285 15.1711 8.0255 14.9349C8.30636 14.6441 8.39127 14.2078 8.39127 13.6354L8.39998 12.7174C8.39998 12.572 8.45913 12.4626 8.53606 12.3719C8.62097 12.2629 8.74833 12.2171 8.84196 12.19C9.42037 12.0445 10.6026 11.9084 11.9975 11.9084C13.4007 11.9084 14.5742 12.017 15.1527 12.1993C15.2376 12.2264 15.3566 12.2807 15.4502 12.3719C15.5351 12.4626 15.5863 12.5627 15.5863 12.7081L15.595 13.635C15.6033 14.2078 15.6882 14.6441 15.9604 14.9349C16.1818 15.1715 16.5134 15.3259 16.9895 15.4077L20.1022 15.9712C20.6041 16.0623 21.0294 15.8711 21.3614 15.526C21.7605 15.1079 21.9819 14.4626 21.9989 13.7265C22.0243 12.4991 21.5907 11.49 20.8254 10.6721C19.0905 8.82682 15.6799 8 11.9975 8Z" fill="#0B0B0A"/>
</svg>
