<svg width="24" height="24" viewBox="0 0 24 24" fill="none" xmlns="http://www.w3.org/2000/svg">
<path fill-rule="evenodd" clip-rule="evenodd" d="M5.3345 13.1126H18.6657C19.1033 13.1126 19.5367 13.0264 19.9411 12.8589C20.3454 12.6914 20.7128 12.4459 21.0223 12.1364C21.3318 11.827 21.5773 11.4596 21.7448 11.0552C21.9123 10.6509 21.9985 10.2175 21.9985 9.77981C21.9985 9.34214 21.9123 8.90876 21.7448 8.5044C21.5773 8.10005 21.3318 7.73265 21.0223 7.42317C20.7128 7.11369 20.3454 6.8682 19.9411 6.70071C19.5367 6.53322 19.1033 6.44702 18.6657 6.44702C17.9547 6.44702 17.3614 5.93488 17.0704 5.28609C16.6325 4.30746 15.9208 3.47646 15.0211 2.89336C14.1214 2.31027 13.0722 2 12.0001 2C10.928 2 9.87875 2.31027 8.97906 2.89336C8.07937 3.47646 7.36766 4.30746 6.9298 5.28609C6.63873 5.93488 6.0455 6.44702 5.3345 6.44702C4.45059 6.44702 3.60288 6.79815 2.97786 7.42317C2.35284 8.04819 2.00171 8.8959 2.00171 9.77981C2.00171 10.6637 2.35284 11.5114 2.97786 12.1364C3.60288 12.7615 4.45059 13.1126 5.3345 13.1126Z" fill="#0B0B0A"/>
<path d="M5.3345 20.8891V16.4453C5.3345 15.8318 5.83188 15.3344 6.44543 15.3344C7.05898 15.3344 7.55636 15.8318 7.55636 16.4453V20.8891C7.55636 21.5026 7.05898 22 6.44543 22C5.83188 22 5.3345 21.5026 5.3345 20.8891ZM16.4438 19.7781V16.4453C16.4438 15.8318 16.9412 15.3344 17.5547 15.3344C18.1683 15.3344 18.6657 15.8318 18.6657 16.4453V19.7781C18.6657 20.3917 18.1683 20.8891 17.5547 20.8891C16.9412 20.8891 16.4438 20.3917 16.4438 19.7781ZM10.8892 18.6672V16.4453C10.8892 15.8318 11.3865 15.3344 12.0001 15.3344C12.6136 15.3344 13.111 15.8318 13.111 16.4453V18.6672C13.111 19.2808 12.6136 19.7781 12.0001 19.7781C11.3865 19.7781 10.8892 19.2808 10.8892 18.6672Z" fill="#0B0B0A"/>
</svg>
