<svg width="24" height="24" viewBox="0 0 24 24" fill="none" xmlns="http://www.w3.org/2000/svg">
<path d="M11.0304 22C10.0213 22 9.17024 21.2483 9.04569 20.2469L8.94969 19.475C8.89799 19.0594 8.61359 18.7186 8.25628 18.5C7.89965 18.2818 7.46089 18.2245 7.07576 18.3872L6.36497 18.6873C5.43488 19.08 4.35791 18.718 3.85394 17.8432L2.87822 16.1494C2.37609 15.2777 2.59951 14.1688 3.39999 13.5596L4.29273 12.8801C4.45914 12.7535 4.53738 12.5466 4.53738 12.3375V11.6625C4.53738 11.4534 4.45914 11.2465 4.29273 11.1199L3.39999 10.4404C2.59951 9.83122 2.37609 8.72225 2.87822 7.8506L3.85394 6.15684C4.35791 5.282 5.43488 4.91995 6.36497 5.3127L7.06611 5.60877C7.45723 5.77393 7.90246 5.71472 8.26872 5.5C8.62548 5.29085 8.89722 4.94685 8.94826 4.53646L9.04569 3.75315C9.17024 2.75175 10.0213 2 11.0304 2H12.9697C13.9788 2 14.8299 2.75175 14.9544 3.75315L15.0504 4.52499C15.1021 4.94065 15.3865 5.28142 15.7438 5.5C16.1005 5.71816 16.5392 5.77548 16.9244 5.61285L17.6352 5.3127C18.5653 4.91995 19.6422 5.282 20.1462 6.15684L21.1219 7.8506C21.624 8.72225 21.4006 9.83122 20.6001 10.4404L19.7074 11.1199C19.541 11.2465 19.4628 11.4534 19.4628 11.6625V12.3375C19.4628 12.5439 19.5211 12.7572 19.6853 12.8823L20.5753 13.5596C21.3757 14.1688 21.5992 15.2777 21.097 16.1494L20.124 17.8385C19.6189 18.7153 18.5384 19.0767 17.6074 18.6802L16.9332 18.3931C16.5428 18.2269 16.0975 18.2854 15.7314 18.5C15.3746 18.7092 15.1029 19.0532 15.0519 19.4635L14.9544 20.2469C14.8299 21.2483 13.9788 22 12.9697 22H11.0304ZM12.0498 15.5C13.0117 15.5 13.8326 15.1583 14.5125 14.475C15.1924 13.7917 15.5324 12.9667 15.5324 12C15.5324 11.0333 15.1924 10.2083 14.5125 9.525C13.8326 8.84167 13.0117 8.5 12.0498 8.5C11.0714 8.5 10.2463 8.84167 9.57469 9.525C8.90305 10.2083 8.56723 11.0333 8.56723 12C8.56723 12.9667 8.90305 13.7917 9.57469 14.475C10.2463 15.1583 11.0714 15.5 12.0498 15.5Z" fill="#969595"/>
</svg>
