<svg width="21" height="13" viewBox="0 0 21 13" fill="none" xmlns="http://www.w3.org/2000/svg">
<path fill-rule="evenodd" clip-rule="evenodd" d="M20.1351 1.68199C20.1351 1.04895 19.6575 0.535767 19.0684 0.535767H18.0017C17.4126 0.535767 16.9351 1.04895 16.9351 1.68199V11.616C16.9351 12.249 17.4126 12.7622 18.0017 12.7622H19.0684C19.6575 12.7622 20.1351 12.249 20.1351 11.616V1.68199ZM12.7009 2.98105H13.7676C14.3567 2.98105 14.8343 3.50655 14.8343 4.15478V11.5884C14.8343 12.2367 14.3567 12.7622 13.7676 12.7622H12.7009C12.1118 12.7622 11.6343 12.2367 11.6343 11.5884V4.15478C11.6343 3.50655 12.1118 2.98105 12.7009 2.98105ZM8.36917 5.6301H7.30251C6.7134 5.6301 6.23584 6.16229 6.23584 6.81878V11.5735C6.23584 12.23 6.7134 12.7622 7.30251 12.7622H8.36917C8.95828 12.7622 9.43584 12.23 9.43584 11.5735V6.81878C9.43584 6.16229 8.95828 5.6301 8.36917 5.6301ZM3.06839 8.07539H2.00173C1.41262 8.07539 0.935059 8.59998 0.935059 9.24709V11.5905C0.935059 12.2376 1.41262 12.7622 2.00173 12.7622H3.06839C3.6575 12.7622 4.13506 12.2376 4.13506 11.5905V9.24709C4.13506 8.59998 3.6575 8.07539 3.06839 8.07539Z" fill="black"/>
</svg>
