<svg width="24" height="24" viewBox="0 0 24 24" fill="none" xmlns="http://www.w3.org/2000/svg">
<path fill-rule="evenodd" clip-rule="evenodd" d="M12 22C6.477 22 2 17.523 2 12C2 6.477 6.477 2 12 2C17.523 2 22 6.477 22 12C22 17.523 17.523 22 12 22ZM12 18C13.3723 18.0002 14.695 17.4874 15.7086 16.5623C16.7221 15.6372 17.3532 14.3666 17.478 13H6.522C6.64675 14.3666 7.27786 15.6372 8.29141 16.5623C9.30496 17.4874 10.6277 18.0002 12 18ZM8.5 10.5C8.89782 10.5 9.27936 10.342 9.56066 10.0607C9.84196 9.77936 10 9.39782 10 9C10 8.60218 9.84196 8.22064 9.56066 7.93934C9.27936 7.65804 8.89782 7.5 8.5 7.5C8.10218 7.5 7.72064 7.65804 7.43934 7.93934C7.15804 8.22064 7 8.60218 7 9C7 9.39782 7.15804 9.77936 7.43934 10.0607C7.72064 10.342 8.10218 10.5 8.5 10.5ZM15.5 10.5C15.8978 10.5 16.2794 10.342 16.5607 10.0607C16.842 9.77936 17 9.39782 17 9C17 8.60218 16.842 8.22064 16.5607 7.93934C16.2794 7.65804 15.8978 7.5 15.5 7.5C15.1022 7.5 14.7206 7.65804 14.4393 7.93934C14.158 8.22064 14 8.60218 14 9C14 9.39782 14.158 9.77936 14.4393 10.0607C14.7206 10.342 15.1022 10.5 15.5 10.5Z" fill="url(#paint0_linear_1007_54306)"/>
<defs>
<linearGradient id="paint0_linear_1007_54306" x1="2" y1="2" x2="22" y2="22" gradientUnits="userSpaceOnUse">
<stop stop-color="#FCC763"/>
<stop offset="1" stop-color="#EEAA25"/>
</linearGradient>
</defs>
</svg>
