<svg width="24" height="24" viewBox="0 0 24 24" fill="none" xmlns="http://www.w3.org/2000/svg">
<path d="M19.5 10.833C19.8682 10.833 20.167 11.1318 20.167 11.5C20.167 15.7855 16.8651 19.2972 12.667 19.6367V22C12.667 22.3682 12.3682 22.667 12 22.667C11.6318 22.667 11.333 22.3682 11.333 22V19.6367C7.13488 19.2972 3.83301 15.7855 3.83301 11.5C3.83301 11.1318 4.13181 10.833 4.5 10.833C4.86819 10.833 5.16699 11.1318 5.16699 11.5C5.16699 15.2738 8.22619 18.333 12 18.333C15.7738 18.333 18.833 15.2738 18.833 11.5C18.833 11.1318 19.1318 10.833 19.5 10.833Z" fill="url(#paint0_linear_1007_54310)"/>
<path d="M12 1.33301C14.3012 1.33301 16.167 3.19881 16.167 5.5V12C16.167 14.3012 14.3012 16.167 12 16.167C9.69881 16.167 7.83301 14.3012 7.83301 12V5.5C7.83301 3.19881 9.69881 1.33301 12 1.33301Z" fill="url(#paint1_linear_1007_54310)"/>
<defs>
<linearGradient id="paint0_linear_1007_54310" x1="3.83301" y1="1.33301" x2="24.4282" y2="17.1014" gradientUnits="userSpaceOnUse">
<stop stop-color="#FCC763"/>
<stop offset="1" stop-color="#EEAA25"/>
</linearGradient>
<linearGradient id="paint1_linear_1007_54310" x1="3.83301" y1="1.33301" x2="24.4282" y2="17.1014" gradientUnits="userSpaceOnUse">
<stop stop-color="#FCC763"/>
<stop offset="1" stop-color="#EEAA25"/>
</linearGradient>
</defs>
</svg>
