<svg width="24" height="24" viewBox="0 0 24 24" fill="none" xmlns="http://www.w3.org/2000/svg">
<path d="M4.596 7.9999L15 18.4039V19.8059C15.0001 20.0081 14.9444 20.2064 14.8391 20.379C14.7338 20.5517 14.583 20.6919 14.4031 20.7844C14.2233 20.8769 14.0215 20.9181 13.8198 20.9033C13.6182 20.8886 13.4245 20.8185 13.26 20.7009L6.68 15.9999H4C3.46957 15.9999 2.96086 15.7892 2.58579 15.4141C2.21071 15.039 2 14.5303 2 13.9999V9.9999C2 9.46946 2.21071 8.96076 2.58579 8.58568C2.96086 8.21061 3.46957 7.9999 4 7.9999H4.596ZM15 4.1939V13.5859L16.113 14.6989C16.02 14.5207 15.9828 14.3186 16.0064 14.119C16.0299 13.9194 16.1131 13.7315 16.245 13.5799L16.333 13.4909C16.743 13.1229 17 12.5919 17 11.9999C17.0002 11.488 16.804 10.9955 16.452 10.6239L16.333 10.5089C16.1382 10.3312 16.0215 10.0839 16.0082 9.82061C15.9949 9.55734 16.086 9.29945 16.2619 9.10305C16.4377 8.90666 16.684 8.78763 16.9471 8.77187C17.2103 8.75611 17.469 8.84489 17.667 9.0189C18.0864 9.39407 18.4219 9.8535 18.6515 10.3672C18.8812 10.8808 19 11.4372 19 11.9999C19 12.5626 18.8812 13.1189 18.6515 13.6326C18.4219 14.1463 18.0864 14.6057 17.667 14.9809C17.5155 15.1167 17.3261 15.2031 17.1242 15.2285C16.9223 15.2539 16.7174 15.217 16.537 15.1229L18.007 16.5929C17.9876 16.433 18.007 16.2707 18.0638 16.1199C18.1206 15.9691 18.2129 15.8343 18.333 15.7269C18.8574 15.2579 19.277 14.6835 19.5642 14.0413C19.8515 13.3991 20 12.7034 20 11.9999C20 10.5199 19.358 9.1899 18.333 8.2729C18.2338 8.1857 18.1528 8.0797 18.0948 7.96103C18.0367 7.84236 18.0028 7.71336 17.9949 7.5815C17.987 7.44963 18.0053 7.31751 18.0487 7.19276C18.0922 7.06801 18.1599 6.9531 18.2481 6.85468C18.3362 6.75626 18.4429 6.67628 18.5621 6.61934C18.6813 6.56241 18.8106 6.52966 18.9426 6.52299C19.0745 6.51631 19.2064 6.53585 19.3308 6.58046C19.4551 6.62507 19.5694 6.69387 19.667 6.7829C20.401 7.43946 20.9881 8.24349 21.3901 9.14247C21.7922 10.0414 22 11.0151 22 11.9999C22 12.9847 21.7922 13.9584 21.3901 14.8573C20.9881 15.7563 20.401 16.5603 19.667 17.2169C19.5609 17.312 19.4357 17.3833 19.2998 17.4261C19.1639 17.4688 19.0204 17.4821 18.879 17.4649L20.485 19.0709C20.6672 19.2595 20.768 19.5121 20.7657 19.7743C20.7634 20.0365 20.6582 20.2873 20.4728 20.4727C20.2874 20.6581 20.0366 20.7633 19.7744 20.7656C19.5122 20.7679 19.2596 20.6671 19.071 20.4849L3.515 4.9299C3.41949 4.83765 3.34331 4.72731 3.2909 4.6053C3.23849 4.4833 3.2109 4.35208 3.20975 4.2193C3.2086 4.08652 3.2339 3.95484 3.28418 3.83194C3.33446 3.70905 3.40871 3.59739 3.5026 3.5035C3.5965 3.40961 3.70815 3.33536 3.83105 3.28508C3.95394 3.23479 4.08562 3.20949 4.2184 3.21065C4.35118 3.2118 4.4824 3.23939 4.6044 3.2918C4.72641 3.3442 4.83675 3.42039 4.929 3.5159L8.275 6.8599L13.261 3.2979C13.4255 3.18048 13.6192 3.11066 13.8208 3.09612C14.0224 3.08157 14.2241 3.12285 14.4038 3.21542C14.5835 3.308 14.7342 3.4483 14.8394 3.62091C14.9445 3.79352 15.0001 3.99177 15 4.1939Z" fill="#0B0B0A"/>
</svg>
