<svg width="24" height="24" viewBox="0 0 24 24" fill="none" xmlns="http://www.w3.org/2000/svg">
<path d="M13.26 3.87527C13.4165 3.76331 13.5997 3.69436 13.7911 3.67532C13.9826 3.65628 14.1758 3.6878 14.3512 3.76674C14.5267 3.84569 14.6785 3.96928 14.7912 4.1252C14.904 4.28111 14.9739 4.46388 14.994 4.65527L15 4.76927V20.3813C15.0001 20.5737 14.9496 20.7628 14.8538 20.9296C14.7579 21.0965 14.6199 21.2353 14.4536 21.3321C14.2874 21.429 14.0986 21.4805 13.9061 21.4816C13.7137 21.4827 13.5244 21.4333 13.357 21.3383L13.261 21.2763L6.68 16.5753H4C3.49542 16.5754 3.00943 16.3849 2.63945 16.0418C2.26947 15.6987 2.04284 15.2284 2.005 14.7253L2 14.5753V10.5753C1.99984 10.0707 2.19041 9.5847 2.5335 9.21472C2.87659 8.84474 3.34684 8.61811 3.85 8.58027L4 8.57527H6.68L13.26 3.87527ZM19.667 7.35827C20.401 8.01483 20.9881 8.81886 21.3901 9.71784C21.7922 10.6168 22 11.5905 22 12.5753C22 13.56 21.7922 14.5337 21.3901 15.4327C20.9881 16.3317 20.401 17.1357 19.667 17.7923C19.5694 17.8813 19.4551 17.9501 19.3308 17.9947C19.2064 18.0393 19.0745 18.0588 18.9426 18.0522C18.8106 18.0455 18.6813 18.0127 18.5621 17.9558C18.4429 17.8989 18.3362 17.8189 18.2481 17.7205C18.1599 17.6221 18.0922 17.5072 18.0487 17.3824C18.0053 17.2577 17.987 17.1255 17.9949 16.9937C18.0028 16.8618 18.0367 16.7328 18.0948 16.6141C18.1528 16.4955 18.2338 16.3895 18.333 16.3023C18.8574 15.8333 19.277 15.2589 19.5642 14.6167C19.8515 13.9744 20 13.2788 20 12.5753C20 11.0953 19.358 9.76527 18.333 8.84827C18.2338 8.76107 18.1528 8.65507 18.0948 8.5364C18.0367 8.41773 18.0028 8.28873 17.9949 8.15687C17.987 8.025 18.0053 7.89288 18.0487 7.76813C18.0922 7.64338 18.1599 7.52847 18.2481 7.43005C18.3362 7.33163 18.4429 7.25164 18.5621 7.19471C18.6813 7.13778 18.8106 7.10503 18.9426 7.09836C19.0745 7.09168 19.2064 7.11121 19.3308 7.15583C19.4551 7.20044 19.5694 7.26924 19.667 7.35827ZM17.667 9.59427C18.0862 9.96933 18.4217 10.4286 18.6513 10.9421C18.881 11.4556 18.9998 12.0117 19 12.5743C19.0001 13.1371 18.8815 13.6937 18.6518 14.2075C18.4221 14.7214 18.0865 15.181 17.667 15.5563C17.4774 15.7247 17.2308 15.8148 16.9773 15.8082C16.7237 15.8017 16.4821 15.6991 16.3014 15.5212C16.1206 15.3432 16.0143 15.1033 16.0038 14.8498C15.9933 14.5964 16.0796 14.3485 16.245 14.1563L16.333 14.0663C16.743 13.6983 17 13.1673 17 12.5753C17.0002 12.0634 16.804 11.5709 16.452 11.1993L16.333 11.0843C16.2338 10.9971 16.1528 10.8911 16.0948 10.7724C16.0367 10.6537 16.0028 10.5247 15.9949 10.3929C15.987 10.261 16.0053 10.1289 16.0487 10.0041C16.0922 9.87938 16.1599 9.76447 16.2481 9.66605C16.3362 9.56763 16.4429 9.48764 16.5621 9.43071C16.6813 9.37378 16.8106 9.34103 16.9426 9.33436C17.0745 9.32768 17.2064 9.34722 17.3308 9.39183C17.4551 9.43644 17.5694 9.50524 17.667 9.59427Z" fill="#0B0B0A"/>
</svg>
