<svg width="18" height="13" viewBox="0 0 18 13" fill="none" xmlns="http://www.w3.org/2000/svg">
<path fill-rule="evenodd" clip-rule="evenodd" d="M9.20558 3.10398C11.6927 3.10408 14.0847 4.02616 15.8872 5.67964C16.0229 5.8073 16.2399 5.80569 16.3736 5.67603L17.6711 4.41257C17.7388 4.34681 17.7765 4.25773 17.7759 4.16505C17.7754 4.07237 17.7366 3.98372 17.6681 3.91873C12.9371 -0.455983 5.47335 -0.455983 0.742333 3.91873C0.673801 3.98368 0.634917 4.07229 0.634285 4.16497C0.633653 4.25766 0.671326 4.34676 0.738966 4.41257L2.03683 5.67603C2.17043 5.80588 2.38755 5.8075 2.5232 5.67964C4.32594 4.02606 6.71823 3.10397 9.20558 3.10398ZM9.20222 7.32425C10.5595 7.32417 11.8684 7.83591 12.8745 8.76004C13.0106 8.89119 13.225 8.88835 13.3576 8.75363L14.6449 7.43432C14.7127 7.36512 14.7503 7.27124 14.7494 7.17369C14.7484 7.07614 14.7089 6.98306 14.6397 6.91527C11.5759 4.02442 6.83116 4.02442 3.76732 6.91527C3.69812 6.98306 3.65863 7.07619 3.65772 7.17377C3.65682 7.27135 3.69456 7.36522 3.76249 7.43432L5.0494 8.75363C5.18206 8.88835 5.39642 8.89119 5.53251 8.76004C6.53796 7.83652 7.8458 7.32482 9.20222 7.32425ZM11.7266 10.1178C11.7286 10.2232 11.6915 10.3247 11.6242 10.3985L9.44755 12.8533C9.38374 12.9254 9.29675 12.966 9.20598 12.966C9.11521 12.966 9.02822 12.9254 8.96441 12.8533L6.78738 10.3985C6.72013 10.3247 6.68313 10.2231 6.68513 10.1177C6.68712 10.0124 6.72793 9.9126 6.79792 9.84199C8.18802 8.52809 10.2239 8.52809 11.614 9.84199C11.684 9.91266 11.7247 10.0125 11.7266 10.1178Z" fill="black"/>
</svg>
